<svg xmlns="http://www.w3.org/2000/svg" width="32" height="32" viewBox="0 0 32 32" fill="none">
  <rect width="32" height="32" rx="8" fill="#3B82F6"/>
  <path d="M10 22V10H13.5C14.4283 10 15.1667 10.2167 15.715 10.65C16.2633 11.0833 16.5375 11.6917 16.5375 12.475C16.5375 12.975 16.4042 13.4083 16.1375 13.775C15.8792 14.1333 15.5125 14.4 15.0375 14.575C15.5958 14.7083 16.0333 14.9708 16.35 15.3625C16.675 15.7458 16.8375 16.2167 16.8375 16.775C16.8375 17.6083 16.5542 18.2583 15.9875 18.725C15.4292 19.1833 14.6583 19.4167 13.675 19.425L10 22ZM12.25 14.025H13.4625C13.9042 14.025 14.2458 13.925 14.4875 13.725C14.7375 13.5167 14.8625 13.225 14.8625 12.85C14.8625 12.4583 14.7375 12.1625 14.4875 11.9625C14.2375 11.7542 13.8833 11.65 13.425 11.65H12.25V14.025ZM12.25 17.775H13.6125C14.1208 17.775 14.5083 17.6667 14.775 17.45C15.05 17.225 15.1875 16.9083 15.1875 16.5C15.1875 16.0917 15.0458 15.775 14.7625 15.55C14.4875 15.325 14.0958 15.2125 13.5875 15.2125H12.25V17.775Z" fill="white"/>
  <path d="M18.5 10H20.75V22H18.5V10Z" fill="white"/>
</svg>
